<svg width="64" height="64" viewBox="0 0 64 64" fill="none" xmlns="http://www.w3.org/2000/svg">
<g clip-path="url(#clip0_145_5)">
<path d="M32.4814 0.000976562C32.6484 0.000976562 32.7505 0.0102547 32.8711 0.0195312C32.9637 0.0288049 33.084 0.0473613 33.1396 0.0566406C33.1953 0.0659114 33.2974 0.0932452 33.3623 0.102539C33.4271 0.121065 33.5474 0.158708 33.6309 0.186523C33.7049 0.205043 33.8349 0.251014 33.9092 0.288086C33.9832 0.315865 34.0947 0.371534 34.1504 0.399414C34.2153 0.436519 39.2132 3.33102 45.2588 6.84668C51.3046 10.3532 56.3033 13.2573 56.3682 13.3037C56.4331 13.3501 56.5441 13.4337 56.6182 13.4893C56.683 13.5449 56.8037 13.6465 56.8779 13.7207C56.9521 13.7949 57.0542 13.8975 57.1006 13.9531C57.1469 13.9995 57.212 14.0831 57.249 14.1387C57.2953 14.1943 57.3511 14.2681 57.3789 14.3145C57.416 14.3608 57.4717 14.4536 57.5088 14.5186C57.5459 14.5835 57.6011 14.6953 57.6289 14.751C57.6567 14.8159 57.7124 14.9269 57.7402 15.001C57.7681 15.0752 57.8057 15.1777 57.8242 15.2334C57.8428 15.2983 57.8702 15.3913 57.8887 15.4561C57.898 15.521 57.9263 15.632 57.9355 15.7061C57.9541 15.771 57.9722 15.8921 57.9814 15.957C57.9907 16.07 57.9907 16.873 58 28.9902C58 38.211 58.0005 41.9497 57.9912 42.0518C57.982 42.126 57.9721 42.2462 57.9629 42.3203C57.9536 42.3852 57.9351 42.4785 57.9258 42.5156C57.9165 42.5621 57.8979 42.6452 57.8887 42.71C57.8701 42.7656 57.833 42.877 57.8145 42.9512C57.7866 43.0254 57.7495 43.1367 57.7217 43.1924C57.7031 43.2573 57.6665 43.3413 57.6387 43.3877L57.5361 43.5908C57.4991 43.6557 57.4346 43.7583 57.3975 43.8232C57.3604 43.8789 57.2954 43.9717 57.249 44.0273C57.212 44.0736 57.1562 44.1474 57.1191 44.1846C57.0821 44.2309 57.0082 44.315 56.9434 44.3799C56.8786 44.4446 56.7857 44.5278 56.7393 44.5742C56.6836 44.6206 56.5996 44.6953 56.5439 44.7324C56.4975 44.7696 56.4047 44.834 56.3398 44.8711C56.2835 44.9179 53.3538 46.6157 49.8398 48.6562C46.3163 50.6971 43.4321 52.3765 43.4229 52.3857C43.4096 52.3972 43.2165 52.5073 42.9873 52.6357C42.7557 52.7748 42.5242 52.9046 42.4775 52.9326C42.4312 52.9604 42.3848 52.9883 42.3662 53.0068C42.3477 53.0161 42.292 53.063 42.2363 53.1094L42.0693 53.2764C42.0322 53.3228 41.9765 53.3971 41.9395 53.4434C41.9116 53.4807 41.8563 53.573 41.8193 53.6377C41.7823 53.7026 41.7451 53.7954 41.7266 53.8418C41.708 53.8882 41.6802 53.9717 41.6709 54.0273C41.6524 54.0737 41.6338 54.1572 41.6338 54.2129C41.6152 54.2871 41.6147 54.4169 41.6055 54.8896C41.6055 55.2143 41.5962 56.1422 41.5869 56.9678C41.5776 58.3128 41.5781 58.7212 41.5967 61.2256C41.606 62.7562 41.6055 64 41.6055 64L36.2744 60.9102C33.3442 59.2033 30.8955 57.7847 30.8398 57.7568C30.7765 57.7245 25.7911 54.8221 19.75 51.3184C13.7057 47.8127 8.70895 44.9003 8.6416 44.8525C8.57676 44.8155 8.47462 44.7417 8.41895 44.6953C8.36334 44.649 8.2612 44.5654 8.19629 44.5098C8.14065 44.4541 8.03806 44.3608 7.98242 44.2959C7.92693 44.2311 7.85347 44.1479 7.81641 44.1016C7.77932 44.0552 7.72361 43.9805 7.68652 43.9248C7.64947 43.8784 7.5937 43.7861 7.55664 43.7305C7.51955 43.6748 7.46385 43.5723 7.42676 43.498C7.38972 43.4331 7.33348 43.3134 7.30566 43.2393C7.26857 43.165 7.22215 43.0439 7.19434 42.9697C7.17581 42.8956 7.13868 42.7755 7.12012 42.7197C7.11084 42.6548 7.08349 42.5615 7.07422 42.5059C7.06495 42.4502 7.05517 42.3667 7.0459 42.3018C7.03662 42.246 7.01855 42.1161 7.01855 42.0234C7.00002 41.8743 7 40.3507 7 29.083C7 17.7589 7.00007 16.2936 7.01855 16.1426C7.01855 16.0498 7.03662 15.9287 7.0459 15.873C7.05517 15.8174 7.06447 15.7153 7.08301 15.6504C7.09226 15.5949 7.12055 15.4932 7.12988 15.4375L7.21289 15.1865C7.23144 15.1123 7.28761 14.9824 7.31543 14.9082C7.35253 14.834 7.41754 14.704 7.46387 14.6299C7.50093 14.5465 7.57476 14.4263 7.62109 14.3613C7.66746 14.2964 7.73293 14.1943 7.7793 14.1387C7.82566 14.083 7.90921 13.9897 7.96484 13.9248C8.02051 13.8599 8.11295 13.7577 8.17773 13.7021C8.24262 13.6465 8.33503 13.563 8.39062 13.5166C8.44626 13.4795 8.55815 13.3965 8.6416 13.3408C8.71619 13.2849 9.26327 12.9598 9.85645 12.626C10.4428 12.2815 15.3748 9.40608 20.8164 6.23438C26.2687 3.06186 30.7847 0.43652 30.8682 0.399414C30.9424 0.353072 31.0817 0.297795 31.165 0.260742C31.2485 0.223674 31.3785 0.186005 31.4434 0.158203C31.5082 0.139686 31.6188 0.112251 31.6836 0.09375C31.7484 0.0844835 31.8599 0.0561815 31.9248 0.046875C31.9896 0.037608 32.0918 0.0287983 32.1475 0.0195312C32.2031 0.0102547 32.25 0.0102531 32.25 0.000976562H32.4814ZM33.5391 34.8428L29.125 37.3945C29.0508 37.3111 28.9677 37.227 28.8936 37.1621C28.8101 37.0879 28.7173 36.9951 28.6709 36.958C28.6245 36.9209 28.5405 36.8652 28.4941 36.8281L28.2998 36.6982C28.2441 36.6611 28.1234 36.5962 28.04 36.5498C27.9566 36.5127 27.8451 36.4575 27.7803 36.4297C27.7246 36.4019 27.6044 36.3555 27.5303 36.3369C27.4562 36.3091 27.3267 36.2715 27.2617 36.2529C27.1875 36.2344 27.0757 36.2065 27.0107 36.1973C26.9366 36.1787 26.8344 36.1602 26.7695 36.1602C26.7137 36.1509 26.575 36.1421 26.4824 36.1328H26.1299C26.0373 36.1421 25.9077 36.1509 25.8428 36.1602C25.7779 36.1602 25.6753 36.1787 25.6104 36.1973C25.5364 36.2066 25.4349 36.2348 25.3701 36.2441C25.3053 36.2627 25.2031 36.2906 25.1289 36.3184C25.0641 36.3369 24.9619 36.3736 24.9062 36.4014C24.8506 36.4199 24.7202 36.4756 24.6182 36.5312C24.5256 36.5776 24.4058 36.643 24.3594 36.6709C24.313 36.6987 24.2383 36.7539 24.1826 36.791C24.1362 36.8189 24.0341 36.8931 23.96 36.958C23.895 37.0137 23.7651 37.1255 23.6816 37.209C23.5984 37.2831 23.4972 37.394 23.46 37.4404C23.4136 37.4868 23.3481 37.5703 23.3018 37.626C23.2554 37.6816 23.1909 37.7837 23.1445 37.8486C23.0982 37.9135 23.0425 38.0063 23.0146 38.0527C22.9961 38.099 22.9493 38.1728 22.9307 38.21C22.9121 38.247 22.8657 38.3306 22.8379 38.3955C22.8101 38.4603 22.7637 38.5717 22.7451 38.6367C22.7174 38.7015 22.6807 38.8222 22.6621 38.8965C22.6343 38.9798 22.6064 39.1099 22.5879 39.1934C22.5693 39.2676 22.5503 39.398 22.541 39.4814C22.5225 39.6111 22.5225 39.6762 22.5225 39.9541C22.5225 40.2136 22.523 40.3067 22.5322 40.3994C22.5415 40.4643 22.56 40.5664 22.5693 40.6221C22.5786 40.6869 22.606 40.8077 22.6338 40.9004C22.6523 40.9931 22.69 41.123 22.7178 41.1973C22.7456 41.2621 22.7823 41.3828 22.8193 41.457C22.8471 41.5311 22.8935 41.6239 22.9121 41.6611C22.9307 41.7075 22.9771 41.7822 23.0049 41.8379C23.042 41.8935 23.0889 41.9766 23.126 42.0322C23.1538 42.0786 23.2095 42.1533 23.2373 42.1904C23.2653 42.2368 23.3302 42.3107 23.3672 42.3662C23.4136 42.4127 23.5149 42.5334 23.6074 42.626C23.6909 42.7095 23.8023 42.8213 23.8486 42.8584C23.9043 42.9048 23.979 42.9697 24.0254 43.0068C24.0719 43.0439 24.1648 43.0992 24.2295 43.1455C24.2852 43.1826 24.3868 43.2476 24.4424 43.2754C24.498 43.3125 24.6094 43.3682 24.6836 43.4053C24.767 43.4424 24.8785 43.4981 24.9434 43.5166C24.999 43.5444 25.0919 43.5718 25.1475 43.5996C25.2122 43.6089 25.2955 43.6367 25.3418 43.6553C25.3882 43.6645 25.4903 43.6929 25.5645 43.7021C25.6479 43.7207 25.7593 43.7388 25.8242 43.748C25.8798 43.7573 25.9908 43.7671 26.0742 43.7764C26.1669 43.7764 26.2969 43.7856 26.4082 43.7764C26.5102 43.7764 26.6495 43.7671 26.7236 43.7578C26.7885 43.7486 26.8901 43.7388 26.9365 43.7295C26.9829 43.7202 27.0576 43.7017 27.1133 43.6924C27.1597 43.6831 27.2434 43.665 27.2988 43.6465C27.3545 43.6371 27.4377 43.6093 27.4932 43.5908C27.5488 43.5723 27.6416 43.5352 27.6973 43.5166C27.7622 43.4888 27.8736 43.4428 27.957 43.3965C28.0405 43.3594 28.1519 43.3032 28.1982 43.2754C28.2447 43.2475 28.3375 43.1923 28.3838 43.1553C28.4394 43.1182 28.5318 43.0527 28.5781 43.0156C28.6244 42.9786 28.7168 42.9139 28.7725 42.8584C28.8281 42.812 28.94 42.7007 29.0234 42.6172C29.1068 42.5338 29.2177 42.4131 29.2734 42.3389C29.329 42.274 29.4214 42.1436 29.4678 42.0693C29.5232 41.9861 29.5883 41.8845 29.6162 41.8379C29.644 41.7915 29.7002 41.6797 29.7373 41.6055C29.7744 41.522 29.8203 41.4106 29.8389 41.3643C29.8574 41.3179 29.8946 41.2343 29.9131 41.1787C29.9316 41.1231 29.96 41.0307 29.9785 40.9658C29.9878 40.901 30.0151 40.8082 30.0244 40.7617C30.0337 40.7061 30.0523 40.6313 30.0615 40.585C30.0708 40.5385 30.0806 40.4369 30.0898 40.3721C30.0991 40.2979 30.1084 40.1582 30.1084 40.0469C30.1176 39.9264 30.1084 39.7963 30.1084 39.7129C30.0991 39.6294 30.0893 39.518 30.0801 39.4531C30.0708 39.3882 30.0527 39.2772 30.0342 39.2031C30.0249 39.1289 30.0059 39.0542 30.0059 39.0449C29.9988 39.0163 30.2149 38.8928 34.8926 36.1699C37.5808 34.6027 39.7876 33.3226 39.7891 33.3125C39.7798 33.3125 39.3713 33.0805 38.8799 32.793C38.3792 32.5147 37.9712 32.2832 37.9619 32.2832C37.9347 32.299 35.9608 33.4425 33.5391 34.8428ZM26.0742 16.4385C26.0463 16.4477 25.9813 16.4478 25.9258 16.457C25.8609 16.4663 25.7499 16.4751 25.6758 16.4844C25.6016 16.5029 25.4716 16.5313 25.3975 16.5498C25.3142 16.5683 25.1846 16.605 25.1104 16.6328C25.0454 16.6514 24.9243 16.6978 24.8594 16.7256C24.7853 16.7534 24.6835 16.8091 24.6094 16.8369C24.5445 16.874 24.4331 16.9395 24.3682 16.9766C24.3033 17.0136 24.2016 17.0879 24.1367 17.125C24.0811 17.1714 23.9692 17.2549 23.9043 17.3105C23.8393 17.3663 23.7191 17.4776 23.6357 17.5518C23.5616 17.6352 23.4594 17.7466 23.4131 17.793C23.3668 17.8486 23.3022 17.9414 23.2559 17.9971C23.2188 18.0527 23.1533 18.1455 23.1162 18.2012C23.0791 18.2568 23.0234 18.3404 23.0049 18.3867C22.977 18.424 22.931 18.5261 22.8848 18.6094C22.8477 18.6835 22.8013 18.8036 22.7734 18.8594C22.7549 18.9243 22.7178 19.0269 22.6992 19.0918C22.6715 19.1567 22.6435 19.2584 22.625 19.3232C22.6157 19.3881 22.588 19.4716 22.5879 19.5088C22.5786 19.5459 22.5601 19.6387 22.5508 19.7129C22.5415 19.787 22.5225 19.9077 22.5225 19.9727C22.5132 20.0561 22.5137 20.2051 22.5137 20.3535C22.5229 20.5203 22.5225 20.6505 22.541 20.7432C22.5503 20.8266 22.5694 20.9376 22.5879 21.0117C22.5972 21.0767 22.6152 21.1699 22.6338 21.2256C22.6432 21.2722 22.6803 21.3923 22.708 21.4756C22.7451 21.5684 22.7827 21.6895 22.8105 21.7451C22.8383 21.8099 22.8843 21.902 22.9121 21.9668C22.9399 22.0316 22.9868 22.1151 23.0146 22.1523C23.0332 22.1987 23.0982 22.292 23.1445 22.3662C23.1909 22.4404 23.2652 22.542 23.3115 22.5977C23.3578 22.6532 23.4405 22.7558 23.4961 22.8115C23.5516 22.8763 23.6538 22.978 23.7188 23.043C23.7837 23.1079 23.8677 23.1826 23.9141 23.2197C23.9513 23.2569 24.0441 23.3219 24.0996 23.3682C24.1645 23.4145 24.2667 23.4791 24.3408 23.5254C24.4057 23.5718 24.526 23.6367 24.6094 23.6738C24.6834 23.7201 24.7942 23.7665 24.8408 23.7852C24.8965 23.813 24.9898 23.8506 25.0547 23.8691C25.1196 23.8969 25.2306 23.9336 25.3047 23.9521C25.3881 23.9707 25.4995 23.999 25.5645 24.0176C25.6294 24.0269 25.7594 24.0454 25.8428 24.0547C25.9724 24.0732 26.0379 24.082 26.3066 24.082C26.5104 24.082 26.6588 24.0727 26.7236 24.0635C26.7793 24.0634 26.8629 24.0449 26.9092 24.0449C26.9555 24.0356 27.0295 24.0171 27.085 24.0078C27.1406 23.9985 27.2339 23.9707 27.2988 23.9521C27.373 23.9336 27.4841 23.9057 27.5488 23.8779C27.6137 23.8594 27.7246 23.813 27.7803 23.7852C27.8451 23.7666 27.9566 23.7114 28.04 23.665C28.1235 23.6187 28.2354 23.5625 28.291 23.5254C28.3374 23.4975 28.4295 23.4329 28.4941 23.3867C28.5498 23.3496 28.6426 23.2749 28.6982 23.2285C28.7539 23.1821 28.8653 23.0801 28.9395 23.0059L29.0879 22.876C37.7115 27.8853 39.0659 28.6645 39.0752 28.6553C39.0871 28.6494 39.0901 28.6528 39.084 28.665C39.0747 28.6746 39.0561 28.7391 39.0469 28.8037C39.0283 28.8594 38.9917 28.9898 38.9824 29.0732C38.9639 29.1658 38.9361 29.2953 38.9268 29.3604C38.9268 29.4252 38.9082 29.5645 38.9082 29.6572C38.8989 29.7685 38.8989 29.8985 38.9082 30.0098C38.9082 30.1117 38.9267 30.2416 38.9268 30.3066C38.936 30.3715 38.9546 30.4644 38.9639 30.5293C38.9731 30.585 39.001 30.6875 39.0195 30.7617C39.0381 30.8358 39.0655 30.9376 39.084 30.9932C39.1025 31.0581 39.1402 31.1602 39.168 31.2344C39.1958 31.3085 39.2505 31.4199 39.2783 31.4941C39.3154 31.559 39.3711 31.6704 39.4082 31.7354C39.4452 31.8002 39.501 31.893 39.5381 31.9395C39.5659 31.9858 39.6221 32.0601 39.6592 32.1064C39.687 32.1528 39.7515 32.2364 39.7979 32.292C39.8442 32.3384 39.9463 32.4497 40.0205 32.5332C40.104 32.6074 40.2154 32.7188 40.2617 32.7559C40.3172 32.8021 40.3911 32.8666 40.4375 32.8945C40.4746 32.9316 40.5401 32.9692 40.5771 32.9971C40.605 33.0249 40.6789 33.0708 40.7344 33.0986C40.79 33.1357 40.9014 33.2012 40.9756 33.2383C41.0496 33.2753 41.1606 33.3305 41.2256 33.3584C41.2811 33.3769 41.4019 33.4233 41.4854 33.4512C41.5595 33.479 41.6895 33.5166 41.7637 33.5352L42.0234 33.5996C42.0976 33.6089 42.209 33.6274 42.2832 33.6367C42.3852 33.646 42.4782 33.6553 42.71 33.6553C42.9601 33.6553 43.025 33.6465 43.1641 33.6279C43.2474 33.6187 43.377 33.5996 43.4512 33.5811C43.5346 33.5625 43.6558 33.5352 43.7207 33.5166C43.7949 33.498 43.9063 33.4609 43.9619 33.4424C44.0176 33.4238 44.11 33.3867 44.1562 33.3682C44.2119 33.3403 44.314 33.2939 44.3789 33.2568C44.453 33.229 44.5454 33.1734 44.5918 33.1455C44.6382 33.1177 44.7315 33.0615 44.7871 33.0244C44.852 32.9872 44.945 32.913 44.9912 32.876C45.0468 32.8389 45.1388 32.7654 45.1943 32.71C45.2499 32.6636 45.3521 32.561 45.417 32.4961C45.4819 32.4312 45.5659 32.3296 45.6123 32.2832C45.6494 32.2368 45.7237 32.1435 45.7607 32.0879C45.8069 32.0324 45.8622 31.9493 45.8809 31.9121C45.9087 31.875 45.9551 31.8003 45.9922 31.7354C46.0293 31.6797 46.0752 31.5962 46.0938 31.5498C46.1123 31.5127 46.1592 31.4111 46.1963 31.3369C46.2241 31.2627 46.2705 31.1323 46.3076 31.0488C46.3262 30.9655 46.3633 30.8452 46.3818 30.7803C46.4004 30.7153 46.419 30.6128 46.4375 30.5479C46.4468 30.4737 46.4653 30.3715 46.4746 30.3066C46.4839 30.2416 46.4932 30.1117 46.4932 30.0098C46.4993 29.8924 46.4993 29.772 46.4932 29.6484C46.4932 29.5465 46.4741 29.4073 46.4648 29.333C46.4556 29.2588 46.437 29.1475 46.4277 29.0732C46.4092 29.0083 46.3906 28.897 46.3721 28.832C46.3535 28.7671 46.3164 28.665 46.2979 28.5908C46.27 28.5259 46.2241 28.4053 46.1963 28.3311C46.1592 28.2568 46.1123 28.1543 46.0938 28.1172C46.0751 28.0707 46.0291 27.9871 45.9922 27.9316C45.9551 27.8667 45.8993 27.7743 45.8623 27.7188C45.8159 27.6538 45.7514 27.5605 45.7051 27.5049C45.6679 27.4492 45.5932 27.3661 45.5469 27.3105C45.5005 27.2641 45.4081 27.162 45.334 27.0879C45.2598 27.023 45.1665 26.9307 45.1201 26.8936C45.0739 26.8473 45.0005 26.7916 44.9541 26.7637C44.9171 26.7266 44.8521 26.6889 44.8242 26.6611C44.7871 26.6333 44.7031 26.5874 44.6289 26.541C44.564 26.4946 44.4433 26.4385 44.3691 26.4014C44.295 26.3643 44.1928 26.3183 44.1465 26.2998C44.1 26.272 43.9891 26.2348 43.915 26.207C43.8317 26.1792 43.7114 26.1416 43.6465 26.123C43.5723 26.1045 43.4604 26.0859 43.3955 26.0674C43.3213 26.0581 43.2103 26.0395 43.1455 26.0303C43.0435 26.021 42.9506 26.0117 42.7002 26.0117C42.4963 26.0117 42.3569 26.021 42.292 26.0303C42.2363 26.0304 42.1346 26.0493 42.0791 26.0586C42.0142 26.0679 41.894 26.0957 41.8105 26.1143C41.7179 26.1328 41.5879 26.1787 41.5137 26.1973C41.4395 26.2251 41.3095 26.272 41.2354 26.2998C41.1612 26.3369 41.041 26.3926 40.9668 26.4297C40.8834 26.4761 40.7719 26.541 40.707 26.5781C40.6328 26.6245 40.521 26.6982 40.4561 26.7539C40.3912 26.8003 40.2988 26.8745 40.2617 26.9023C40.2339 26.9302 40.1596 26.9956 40.1133 27.042L40.0303 27.125C32.2768 22.5987 30.0064 21.2777 29.9873 21.2627C29.9873 21.2627 29.9873 21.2344 30.0059 21.1602C30.0151 21.1045 30.0342 21.0117 30.0527 20.9375C30.062 20.8726 30.0801 20.7705 30.0801 20.7334C30.0893 20.687 30.0991 20.5849 30.1084 20.5107V20.168C30.1084 20.0661 30.0991 19.9177 30.0898 19.8525C30.0806 19.7783 30.0708 19.6851 30.0615 19.6387C30.0522 19.5923 30.0337 19.4999 30.0244 19.4443C30.0059 19.3794 29.9878 19.2954 29.9785 19.249L29.8486 18.8594C29.8115 18.7851 29.7553 18.6459 29.709 18.5625C29.6626 18.4698 29.5981 18.3397 29.5518 18.2656C29.5054 18.2007 29.4306 18.0898 29.3936 18.0342C29.3564 17.9785 29.2832 17.8945 29.2461 17.8389C29.1997 17.7832 29.0791 17.6626 28.9863 17.5605C28.8843 17.4678 28.7729 17.3564 28.7266 17.3193C28.6802 17.273 28.6059 17.2173 28.5596 17.1895C28.5224 17.1524 28.4393 17.0966 28.3838 17.0596C28.3374 17.0317 28.2441 16.9673 28.1885 16.9395C28.1236 16.9023 28.0121 16.8462 27.9287 16.7998C27.8453 16.7627 27.7338 16.7168 27.6875 16.6982C27.641 16.6796 27.5482 16.6425 27.4834 16.624C27.4186 16.6055 27.308 16.5684 27.2432 16.5498C27.1691 16.5313 27.0576 16.5127 26.9834 16.4941C26.9185 16.4849 26.8066 16.4663 26.7324 16.457C26.6582 16.4478 26.5103 16.4385 26.3623 16.4385H26.0742Z" fill="#9FA4A8"/>
</g>
<defs>
<clipPath id="clip0_145_5">
<rect width="51" height="64" fill="white" transform="translate(7)"/>
</clipPath>
</defs>
</svg>
