<svg width="64" height="64" viewBox="0 0 64 64" fill="none" xmlns="http://www.w3.org/2000/svg">
<g clip-path="url(#clip0_145_5)">
<path d="M32.4815 0.000976562C32.6484 0.000976562 32.7504 0.0102531 32.8709 0.0195296C32.9636 0.0288061 33.0842 0.0473591 33.1398 0.0566356C33.1955 0.0659121 33.2975 0.0937417 33.3624 0.103018C33.4273 0.121571 33.5478 0.158677 33.6313 0.186507C33.7055 0.20506 33.8353 0.251442 33.9095 0.288548C33.9836 0.316378 34.0949 0.372037 34.1505 0.399866C34.2155 0.436973 39.2135 3.33124 45.2593 6.84704C51.3051 10.3536 56.3031 13.2571 56.368 13.3035C56.4329 13.3499 56.5442 13.4334 56.6184 13.489C56.6833 13.5447 56.8038 13.6467 56.878 13.7209C56.9522 13.7951 57.0542 13.8972 57.1005 13.9528C57.1469 13.9992 57.2118 14.0827 57.2489 14.1384C57.2953 14.194 57.3509 14.2682 57.3787 14.3146C57.4158 14.361 57.4715 14.4538 57.5085 14.5187C57.5456 14.5836 57.6013 14.695 57.6291 14.7506C57.6569 14.8156 57.7125 14.9269 57.7404 15.0011C57.7682 15.0753 57.8053 15.1773 57.8238 15.233C57.8424 15.2979 57.8702 15.3907 57.8887 15.4556C57.898 15.5206 57.9258 15.6319 57.9351 15.7061C57.9536 15.771 57.9722 15.8916 57.9814 15.9566C57.9907 16.0679 57.9907 16.8564 58 28.9901C58 38.2109 58 41.9494 57.9907 42.0514C57.9815 42.1256 57.9722 42.2462 57.9629 42.3204C57.9536 42.3853 57.9351 42.4781 57.9258 42.5152C57.9165 42.5616 57.898 42.6451 57.8887 42.71C57.8702 42.7657 57.8331 42.877 57.8145 42.9512C57.7867 43.0254 57.7496 43.1367 57.7218 43.1924C57.7033 43.2573 57.6662 43.3408 57.6384 43.3872L57.5364 43.5913C57.4993 43.6562 57.4344 43.7583 57.3973 43.8232C57.3602 43.8789 57.2953 43.9716 57.2489 44.0273C57.2118 44.0737 57.1562 44.1479 57.1191 44.185C57.082 44.2314 57.0078 44.3149 56.9429 44.3798C56.878 44.4447 56.7853 44.5282 56.7389 44.5746C56.6833 44.621 56.5998 44.6952 56.5442 44.7323C56.4978 44.7694 56.4051 44.8343 56.3402 44.8715C56.2845 44.9178 53.3544 46.6154 49.84 48.6563C46.3164 50.6971 43.4325 52.3761 43.4233 52.3854C43.414 52.3947 43.2193 52.506 42.9875 52.6359C42.7556 52.775 42.5238 52.9049 42.4775 52.9327C42.4311 52.9606 42.3847 52.9884 42.3662 53.007C42.3476 53.0162 42.292 53.0626 42.2364 53.109L42.0695 53.276C42.0324 53.3224 41.9767 53.3966 41.9396 53.4429C41.9118 53.4801 41.8562 53.5728 41.8191 53.6378C41.782 53.7027 41.7449 53.7955 41.7264 53.8418C41.7078 53.8882 41.68 53.9717 41.6707 54.0274C41.6522 54.0738 41.6336 54.1572 41.6336 54.2129C41.6151 54.2871 41.6151 54.417 41.6058 54.8901C41.6058 55.2148 41.5965 56.1424 41.5873 56.968C41.578 58.3131 41.578 58.7213 41.5965 61.2259C41.6058 62.7566 41.6058 63.9996 41.6058 63.9996L36.274 60.9105C33.3438 59.2037 30.8958 57.7844 30.8402 57.7565C30.7845 57.7287 25.7958 54.8251 19.75 51.3186C13.7042 47.8121 8.70618 44.8993 8.64127 44.8529C8.57636 44.8158 8.47436 44.7416 8.41873 44.6952C8.36309 44.6488 8.26109 44.5653 8.19618 44.5097C8.14055 44.454 8.03855 44.3612 7.98291 44.2963C7.92727 44.2314 7.85309 44.1479 7.816 44.1015C7.77891 44.0551 7.72327 43.9809 7.68618 43.9252C7.64909 43.8789 7.59345 43.7861 7.55636 43.7304C7.51927 43.6748 7.46364 43.5727 7.42655 43.4985C7.38945 43.4336 7.33382 43.313 7.306 43.2388C7.26891 43.1646 7.22255 43.044 7.19473 42.9698C7.17618 42.8956 7.13909 42.775 7.12055 42.7193C7.11127 42.6544 7.08345 42.5616 7.07418 42.5059C7.06491 42.4503 7.05564 42.3668 7.04636 42.3019C7.03709 42.2462 7.01855 42.1163 7.01855 42.0236C7 41.8751 7 40.3538 7 29.0828C7 17.7469 7 16.2905 7.01855 16.1421C7.01855 16.0493 7.03709 15.9287 7.04636 15.8731C7.05564 15.8174 7.06491 15.7154 7.08345 15.6504C7.09273 15.5948 7.12055 15.4927 7.12982 15.4371L7.21327 15.1866C7.23182 15.1124 7.28745 14.9825 7.31527 14.9083C7.35236 14.8341 7.41727 14.7042 7.46364 14.63C7.50073 14.5465 7.57491 14.4259 7.62127 14.361C7.66764 14.2961 7.73255 14.194 7.77891 14.1384C7.82527 14.0827 7.90873 13.99 7.96436 13.925C8.02 13.8601 8.11273 13.758 8.17764 13.7024C8.24255 13.6467 8.33527 13.5632 8.39091 13.5169C8.44655 13.4797 8.55782 13.3963 8.64127 13.3406C8.71545 13.2849 9.26255 12.9603 9.856 12.6263C10.4402 12.2831 15.3733 9.40736 20.8164 6.23479C26.2687 3.06222 30.7845 0.436973 30.868 0.399866C30.9422 0.353484 31.0813 0.297825 31.1647 0.260719C31.2482 0.223613 31.378 0.186507 31.4429 0.158677C31.5078 0.140124 31.6191 0.112295 31.684 0.0937417C31.7489 0.0844651 31.8602 0.0566356 31.9251 0.0473591C31.99 0.0380826 32.092 0.0288061 32.1476 0.0195296C32.2033 0.0102531 32.2496 0.0102531 32.2496 0.000976563L32.4815 0.000976562Z" fill="#0F2B46"/>
<path d="M26.3619 16.4385C26.5102 16.4385 26.6586 16.4478 26.7328 16.457C26.8069 16.4663 26.9182 16.4849 26.9831 16.4941C27.0573 16.5127 27.1686 16.5312 27.2428 16.5498C27.3077 16.5683 27.4189 16.6055 27.4839 16.624C27.5488 16.6426 27.6415 16.6797 27.6879 16.6982C27.7342 16.7168 27.8455 16.7632 27.9289 16.8003C28.0124 16.8466 28.1237 16.9023 28.1886 16.9394C28.2442 16.9672 28.3369 17.0322 28.3833 17.06C28.4389 17.0971 28.5224 17.1528 28.5595 17.1899C28.6059 17.2177 28.68 17.2734 28.7264 17.3197C28.7728 17.3569 28.884 17.4682 28.986 17.5609C29.0788 17.663 29.1993 17.7836 29.2457 17.8392C29.2828 17.8949 29.3569 17.9784 29.394 18.034C29.4311 18.0897 29.5053 18.201 29.5517 18.2659C29.598 18.3402 29.6629 18.47 29.7093 18.5628C29.7557 18.6463 29.8113 18.7854 29.8484 18.8596C29.8762 18.9431 29.9133 19.0452 29.9226 19.0823C29.9411 19.1287 29.9597 19.2029 29.9782 19.2493C29.9875 19.2956 30.006 19.3791 30.0246 19.4441C30.0339 19.4997 30.0524 19.5925 30.0617 19.6389C30.0709 19.6853 30.0802 19.778 30.0895 19.8522C30.0988 19.9172 30.108 20.0656 30.108 20.1676V20.5109C30.0988 20.5851 30.0895 20.6871 30.0802 20.7335C30.0802 20.7706 30.0617 20.8726 30.0524 20.9376C30.0339 21.0118 30.0153 21.1046 30.006 21.1602C29.9875 21.2344 29.9875 21.2623 29.9875 21.2623C29.9968 21.2715 32.2593 22.5888 40.0299 27.125L40.1133 27.0415C40.1597 26.9951 40.2339 26.9302 40.2617 26.9024C40.2988 26.8745 40.3915 26.8003 40.4564 26.754C40.5213 26.6983 40.6326 26.6241 40.7068 26.5777C40.7717 26.5406 40.8829 26.4757 40.9664 26.4293C41.0406 26.3922 41.1611 26.3365 41.2353 26.2994C41.3095 26.2716 41.4393 26.2252 41.5135 26.1974C41.5877 26.1788 41.7175 26.1324 41.8102 26.1139C41.8937 26.0953 42.0142 26.0675 42.0791 26.0582C42.1348 26.0489 42.2368 26.0304 42.2924 26.0304C42.3573 26.0211 42.4964 26.0118 42.7004 26.0118C42.9508 26.0118 43.0435 26.0211 43.1455 26.0304C43.2104 26.0397 43.3217 26.0582 43.3959 26.0675C43.4608 26.086 43.572 26.1046 43.6462 26.1232C43.7111 26.1417 43.8317 26.1788 43.9151 26.2066C43.9893 26.2345 44.1006 26.2716 44.1469 26.2994C44.1933 26.318 44.2953 26.3643 44.3695 26.4014C44.4437 26.4386 44.5642 26.4942 44.6291 26.5406C44.7033 26.587 44.7868 26.6334 44.8239 26.6612C44.8517 26.689 44.9166 26.7261 44.9537 26.7632C45 26.7911 45.0742 26.8467 45.1206 26.8931C45.1669 26.9302 45.2597 27.023 45.3339 27.0879C45.408 27.1621 45.5008 27.2642 45.5471 27.3105C45.5935 27.3662 45.6677 27.4497 45.7048 27.5054C45.7511 27.561 45.816 27.6538 45.8624 27.7187C45.8995 27.7744 45.9551 27.8671 45.9922 27.9321C46.0293 27.9877 46.0757 28.0712 46.0942 28.1176C46.1128 28.1547 46.1591 28.2567 46.1962 28.331C46.224 28.4052 46.2704 28.5258 46.2982 28.5907C46.3168 28.6649 46.3539 28.767 46.3724 28.8319C46.3909 28.8968 46.4095 29.0081 46.428 29.0731C46.4373 29.1473 46.4559 29.2586 46.4651 29.3328C46.4744 29.407 46.4929 29.5462 46.4929 29.6482C46.4991 29.7719 46.4991 29.8925 46.4929 30.01C46.4929 30.1121 46.4837 30.2419 46.4744 30.3069C46.4651 30.3718 46.4466 30.4738 46.4373 30.548C46.4188 30.613 46.4002 30.715 46.3817 30.78C46.3631 30.8449 46.326 30.9655 46.3075 31.049C46.2704 31.1325 46.224 31.2623 46.1962 31.3365C46.1591 31.4108 46.1128 31.5128 46.0942 31.5499C46.0757 31.5963 46.0293 31.6798 45.9922 31.7354C45.9551 31.8004 45.9088 31.8746 45.8809 31.9117C45.8624 31.9488 45.8068 32.0323 45.7604 32.0879C45.7233 32.1436 45.6491 32.2364 45.612 32.2828C45.5657 32.3291 45.4822 32.4312 45.4173 32.4961C45.3524 32.561 45.2504 32.6631 45.1948 32.7095C45.1391 32.7651 45.0464 32.8393 44.9908 32.8765C44.9444 32.9136 44.8517 32.9878 44.7868 33.0249C44.7311 33.062 44.6384 33.1176 44.592 33.1455C44.5457 33.1733 44.4529 33.229 44.3788 33.2568C44.3139 33.2939 44.2119 33.3403 44.1562 33.3681C44.1099 33.3867 44.0171 33.4238 43.9615 33.4423C43.9059 33.4609 43.7946 33.498 43.7204 33.5165C43.6555 33.5351 43.5349 33.5629 43.4515 33.5815C43.3773 33.6 43.2475 33.6186 43.164 33.6278C43.0249 33.6464 42.96 33.6557 42.7097 33.6557C42.4779 33.6557 42.3851 33.6464 42.2831 33.6371C42.2089 33.6278 42.0977 33.6093 42.0235 33.6L41.7639 33.5351C41.6897 33.5165 41.5599 33.4794 41.4857 33.4516C41.4022 33.4238 41.2817 33.3774 41.226 33.3588C41.1611 33.331 41.0499 33.2753 40.9757 33.2382C40.9015 33.2011 40.7902 33.1362 40.7346 33.0991C40.6789 33.0713 40.6048 33.0249 40.5769 32.997C40.5399 32.9692 40.4749 32.9321 40.4379 32.895C40.3915 32.8672 40.3173 32.8022 40.2617 32.7559C40.2153 32.7188 40.104 32.6074 40.0206 32.5332C39.9464 32.4497 39.8444 32.3384 39.798 32.292C39.7517 32.2364 39.6868 32.1529 39.6589 32.1065C39.6219 32.0601 39.5662 31.9859 39.5384 31.9395C39.5013 31.8931 39.4457 31.8004 39.4086 31.7354C39.3715 31.6705 39.3159 31.5592 39.2788 31.4943C39.2509 31.42 39.1953 31.3087 39.1675 31.2345C39.1397 31.1603 39.1026 31.0583 39.084 30.9933C39.0655 30.9377 39.0377 30.8356 39.0191 30.7614C39.0006 30.6872 38.9728 30.5852 38.9635 30.5295C38.9542 30.4646 38.9357 30.3718 38.9264 30.3069C38.9264 30.2419 38.9079 30.1121 38.9079 30.01C38.8986 29.8987 38.8986 29.7688 38.9079 29.6575C38.9079 29.5647 38.9264 29.4256 38.9264 29.3607C38.9357 29.2957 38.9635 29.1658 38.982 29.0731C38.9913 28.9896 39.0284 28.8597 39.0469 28.8041C39.0562 28.7391 39.0748 28.6742 39.084 28.6649C39.0902 28.6525 39.0871 28.6495 39.0748 28.6556C39.0655 28.6649 37.7117 27.8857 29.088 22.8764L28.9397 23.0062C28.8655 23.0805 28.7542 23.1825 28.6986 23.2289C28.6429 23.2753 28.5502 23.3495 28.4946 23.3866C28.4297 23.433 28.3369 23.4979 28.2906 23.5257C28.2349 23.5628 28.1237 23.6185 28.0402 23.6649C27.9568 23.7113 27.8455 23.7669 27.7806 23.7855C27.7249 23.8133 27.6137 23.8597 27.5488 23.8782C27.4839 23.9061 27.3726 23.9339 27.2984 23.9525C27.2335 23.971 27.1408 23.9988 27.0851 24.0081C27.0295 24.0174 26.9553 24.0359 26.9089 24.0452C26.8626 24.0452 26.7791 24.0638 26.7235 24.0638C26.6586 24.073 26.5102 24.0823 26.3062 24.0823C26.0373 24.0823 25.9724 24.073 25.8426 24.0545C25.7591 24.0452 25.6293 24.0267 25.5644 24.0174C25.4995 23.9988 25.3882 23.971 25.3048 23.9525C25.2306 23.9339 25.1193 23.8968 25.0544 23.869C24.9895 23.8504 24.8968 23.8133 24.8411 23.7855C24.7948 23.7669 24.6835 23.7205 24.6093 23.6742C24.5259 23.637 24.4053 23.5721 24.3404 23.5257C24.2662 23.4793 24.1642 23.4144 24.0993 23.368C24.0437 23.3216 23.9509 23.2567 23.9139 23.2196C23.8675 23.1825 23.784 23.1083 23.7191 23.0434C23.6542 22.9784 23.5522 22.8764 23.4966 22.8114C23.4409 22.7558 23.3575 22.6537 23.3111 22.5981C23.2648 22.5424 23.1906 22.4404 23.1442 22.3662C23.0979 22.292 23.0329 22.1992 23.0144 22.1528C22.9866 22.1157 22.9402 22.0322 22.9124 21.9673C22.8846 21.9023 22.8382 21.8096 22.8104 21.7446C22.7826 21.689 22.7455 21.5684 22.7084 21.4756C22.6806 21.3921 22.6435 21.2715 22.6342 21.2252C22.6157 21.1695 22.5971 21.0767 22.5879 21.0118C22.5693 20.9376 22.5508 20.8263 22.5415 20.7428C22.5229 20.65 22.5229 20.5201 22.5137 20.3532C22.5137 20.2047 22.5137 20.0563 22.5229 19.9728C22.5229 19.9079 22.5415 19.7873 22.5508 19.7131C22.56 19.6389 22.5786 19.5461 22.5879 19.509C22.5879 19.4719 22.6157 19.3884 22.6249 19.3235C22.6435 19.2585 22.6713 19.1565 22.6991 19.0916C22.7177 19.0266 22.7548 18.9246 22.7733 18.8596C22.8011 18.804 22.8475 18.6834 22.8846 18.6092C22.9309 18.5257 22.9773 18.4236 23.0051 18.3865C23.0237 18.3402 23.0793 18.2567 23.1164 18.201C23.1535 18.1454 23.2184 18.0526 23.2555 17.9969C23.3019 17.9413 23.3668 17.8485 23.4131 17.7928C23.4595 17.7465 23.5615 17.6351 23.6357 17.5517C23.7191 17.4774 23.8397 17.3661 23.9046 17.3105C23.9695 17.2548 24.0808 17.1713 24.1364 17.1249C24.2013 17.0878 24.3033 17.0136 24.3682 16.9765C24.4331 16.9394 24.5444 16.8745 24.6093 16.8374C24.6835 16.8095 24.7855 16.7539 24.8597 16.726C24.9246 16.6982 25.0451 16.6518 25.11 16.6333C25.1842 16.6055 25.314 16.5683 25.3975 16.5498C25.4717 16.5312 25.6015 16.5034 25.6757 16.4849C25.7499 16.4756 25.8611 16.4663 25.926 16.457C25.9817 16.4478 26.0466 16.4478 26.0744 16.4385H26.3619ZM37.962 32.2828C37.9713 32.2828 38.3793 32.5147 38.88 32.793C39.3715 33.0805 39.7795 33.3124 39.7888 33.3124C39.7888 33.3217 37.5819 34.6019 34.8928 36.1696C30.1915 38.9062 29.9968 39.0175 30.006 39.0453C30.006 39.0546 30.0246 39.1288 30.0339 39.203C30.0524 39.2772 30.0709 39.3886 30.0802 39.4535C30.0895 39.5184 30.0988 39.6298 30.108 39.7132C30.108 39.7967 30.1173 39.9266 30.108 40.0472C30.108 40.1585 30.0988 40.2977 30.0895 40.3719C30.0802 40.4368 30.0709 40.5388 30.0617 40.5852C30.0524 40.6316 30.0339 40.7058 30.0246 40.7615C30.0153 40.8079 29.9875 40.9006 29.9782 40.9656C29.9597 41.0305 29.9319 41.1233 29.9133 41.1789C29.8948 41.2346 29.8577 41.3181 29.8391 41.3645C29.8206 41.4108 29.7742 41.5222 29.7371 41.6056C29.7 41.6799 29.6444 41.7912 29.6166 41.8376C29.5888 41.8839 29.5239 41.986 29.4682 42.0695C29.4219 42.1437 29.3291 42.2736 29.2735 42.3385C29.2179 42.4127 29.1066 42.5333 29.0231 42.6168C28.9397 42.7003 28.8284 42.8116 28.7728 42.858C28.7171 42.9136 28.6244 42.9786 28.578 43.0157C28.5317 43.0528 28.4389 43.1177 28.3833 43.1548C28.3369 43.1919 28.2442 43.2476 28.1979 43.2754C28.1515 43.3032 28.0402 43.3589 27.9568 43.396C27.8733 43.4424 27.762 43.4888 27.6971 43.5166C27.6415 43.5352 27.5488 43.5723 27.4931 43.5908C27.4375 43.6094 27.354 43.6372 27.2984 43.6465C27.2428 43.665 27.1593 43.6836 27.1129 43.6929C27.0573 43.7021 26.9831 43.7207 26.9368 43.73C26.8904 43.7392 26.7884 43.7485 26.7235 43.7578C26.6493 43.7671 26.5102 43.7764 26.4082 43.7764C26.2969 43.7856 26.1671 43.7764 26.0744 43.7764C25.9909 43.7671 25.8797 43.7578 25.824 43.7485C25.7591 43.7392 25.6479 43.7207 25.5644 43.7021C25.4902 43.6929 25.3882 43.665 25.3419 43.6558C25.2955 43.6372 25.212 43.6094 25.1471 43.6001C25.0915 43.5723 24.9988 43.5444 24.9431 43.5166C24.8782 43.4981 24.7669 43.4424 24.6835 43.4053C24.6093 43.3682 24.498 43.3125 24.4424 43.2754C24.3868 43.2476 24.2848 43.1827 24.2291 43.1455C24.1642 43.0992 24.0715 43.0435 24.0251 43.0064C23.9788 42.9693 23.9046 42.9044 23.8489 42.858C23.8026 42.8209 23.6913 42.7095 23.6079 42.6261C23.5151 42.5333 23.4131 42.4127 23.3668 42.3663C23.3297 42.3107 23.2648 42.2364 23.2369 42.1901C23.2091 42.153 23.1535 42.0788 23.1257 42.0324C23.0886 41.9767 23.0422 41.8932 23.0051 41.8376C22.9773 41.7819 22.9309 41.7077 22.9124 41.6613C22.8939 41.6242 22.8475 41.5314 22.8197 41.4572C22.7826 41.383 22.7455 41.2624 22.7177 41.1975C22.6899 41.1233 22.6528 40.9934 22.6342 40.9006C22.6064 40.8079 22.5786 40.6873 22.5693 40.6223C22.56 40.5667 22.5415 40.4646 22.5322 40.3997C22.5229 40.3069 22.5229 40.2142 22.5229 39.9544C22.5229 39.6761 22.5229 39.6112 22.5415 39.4813C22.5508 39.3978 22.5693 39.268 22.5879 39.1938C22.6064 39.1103 22.6342 38.9804 22.662 38.8969C22.6806 38.8227 22.7177 38.7021 22.7455 38.6372C22.764 38.5722 22.8104 38.4609 22.8382 38.396C22.866 38.331 22.9124 38.2475 22.9309 38.2104C22.9495 38.1733 22.9959 38.0991 23.0144 38.0527C23.0422 38.0064 23.0979 37.9136 23.1442 37.8487C23.1906 37.7837 23.2555 37.6817 23.3019 37.626C23.3482 37.5704 23.4131 37.4869 23.4595 37.4405C23.4966 37.3941 23.5986 37.2828 23.682 37.2086C23.7655 37.1251 23.8953 37.0138 23.9602 36.9581C24.0344 36.8932 24.1364 36.819 24.1828 36.7911C24.2384 36.754 24.3126 36.6984 24.3589 36.6705C24.4053 36.6427 24.5259 36.5778 24.6186 36.5314C24.7206 36.4757 24.8504 36.4201 24.906 36.4015C24.9617 36.3737 25.0637 36.3366 25.1286 36.318C25.2028 36.2902 25.3048 36.2624 25.3697 36.2438C25.4346 36.2345 25.5366 36.2067 25.6108 36.1974C25.6757 36.1789 25.7777 36.1603 25.8426 36.1603C25.9075 36.1511 26.0373 36.1418 26.13 36.1325H26.4824C26.5751 36.1418 26.7142 36.1511 26.7699 36.1603C26.8348 36.1603 26.9368 36.1789 27.0109 36.1974C27.0759 36.2067 27.1871 36.2345 27.2613 36.2531C27.3262 36.2717 27.456 36.3088 27.5302 36.3366C27.6044 36.3551 27.7249 36.4015 27.7806 36.4294C27.8455 36.4572 27.9568 36.5128 28.0402 36.5499C28.1237 36.5963 28.2442 36.6613 28.2999 36.6984L28.4946 36.8282C28.5409 36.8654 28.6244 36.921 28.6708 36.9581C28.7171 36.9952 28.8099 37.088 28.8933 37.1622C28.9675 37.2271 29.0509 37.3106 29.1251 37.3941L33.5389 34.8431C35.9777 33.433 37.962 32.2828 37.962 32.2828Z" fill="white"/>
</g>
<defs>
<clipPath id="clip0_145_5">
<rect width="51" height="64" fill="white" transform="translate(7)"/>
</clipPath>
</defs>
</svg>
